<?xml version="1.0" standalone="no"?>
<!DOCTYPE svg PUBLIC "-//W3C//DTD SVG 20010904//EN"
 "http://www.w3.org/TR/2001/REC-SVG-20010904/DTD/svg10.dtd">
<svg version="1.0" xmlns="http://www.w3.org/2000/svg"
 width="500.000000pt" height="500.000000pt" viewBox="0 0 500.000000 500.000000"
 preserveAspectRatio="xMidYMid meet">
<metadata>
Created by potrace 1.14, written by Peter Selinger 2001-2017
</metadata>
<g transform="translate(0.000000,500.000000) scale(0.100000,-0.100000)"
fill="#000000" stroke="none">
<path d="M1298 4495 c-2 -2 -30 -5 -63 -9 -107 -10 -242 -47 -335 -92 -27 -13
-52 -24 -55 -24 -12 0 -185 -114 -185 -122 0 -4 -6 -8 -14 -8 -8 0 -16 -3 -18
-8 -1 -4 -16 -18 -33 -30 -45 -34 -163 -151 -225 -222 -30 -35 -60 -69 -67
-75 -7 -7 -9 -15 -6 -19 4 -3 2 -6 -4 -6 -28 0 -143 -210 -158 -287 -28 -148
45 -283 154 -283 65 0 104 32 211 170 245 316 563 506 690 412 56 -42 65 -74
65 -232 0 -183 -9 -285 -60 -670 -2 -19 -7 -57 -10 -85 -3 -27 -7 -61 -9 -75
-3 -14 -7 -43 -11 -65 -3 -22 -7 -53 -10 -70 -2 -16 -7 -52 -10 -80 -6 -52
-11 -90 -20 -140 -6 -31 -11 -62 -20 -130 -3 -22 -7 -51 -10 -65 -2 -13 -7
-40 -10 -60 -3 -20 -7 -47 -10 -60 -3 -13 -7 -42 -10 -65 -3 -22 -10 -62 -15
-90 -5 -27 -12 -66 -14 -85 -5 -33 -31 -191 -40 -235 -2 -11 -7 -42 -10 -68
-4 -27 -9 -57 -11 -67 -5 -23 -13 -76 -20 -125 -3 -22 -12 -83 -20 -135 -8
-52 -17 -126 -20 -165 -3 -38 -8 -80 -11 -92 -7 -33 -7 -254 0 -283 3 -14 8
-36 10 -50 6 -42 32 -93 60 -124 80 -85 348 -101 444 -26 46 37 91 122 108
205 2 11 6 31 9 45 5 21 31 185 51 320 13 90 34 228 39 255 3 17 15 80 25 140
27 146 27 149 44 230 9 39 18 81 20 95 2 14 16 72 30 130 13 58 27 117 30 133
3 15 8 38 11 52 3 15 13 47 21 72 9 25 17 53 19 62 9 47 19 77 28 89 5 6 7 12
3 12 -3 0 -1 12 5 28 6 15 12 34 14 42 12 53 116 336 164 445 56 126 90 198
125 265 22 41 44 85 50 97 6 13 14 23 19 23 4 0 7 5 7 11 0 20 110 180 180
263 79 93 242 226 329 270 52 27 139 55 191 61 71 10 110 12 114 7 3 -2 22 -6
43 -7 82 -7 170 -74 214 -162 22 -45 24 -58 23 -203 -2 -137 -6 -175 -38 -325
-47 -220 -42 -196 -82 -375 -19 -85 -37 -168 -40 -185 -2 -16 -7 -41 -11 -55
-9 -35 -9 -36 -28 -125 -10 -44 -22 -98 -27 -120 -10 -46 -11 -52 -22 -118 -5
-26 -12 -50 -17 -53 -5 -3 -7 -9 -4 -14 3 -4 -2 -39 -11 -77 -18 -79 -53 -262
-60 -313 -2 -19 -6 -46 -9 -60 -2 -14 -7 -56 -10 -95 -4 -38 -9 -81 -11 -95
-8 -47 -5 -225 6 -300 35 -250 127 -422 301 -562 39 -31 189 -108 211 -108 8
0 18 -3 22 -7 3 -4 12 -8 19 -9 7 -1 28 -5 47 -9 74 -15 88 -16 205 -20 173
-4 301 22 455 93 89 41 222 128 280 182 192 179 320 322 320 359 0 6 5 11 11
11 6 0 9 6 6 14 -3 7 -1 18 4 23 5 5 11 24 13 43 3 19 5 35 7 35 1 0 2 32 3
70 4 119 -31 201 -93 223 -51 18 -97 2 -147 -50 -23 -24 -95 -98 -160 -166
-136 -140 -201 -192 -299 -238 -252 -117 -503 -16 -543 220 -14 81 -8 274 11
396 3 14 8 44 11 68 4 24 21 105 38 180 16 75 36 166 43 202 7 36 29 140 49
232 48 222 104 486 111 521 3 15 8 39 11 55 4 15 8 36 9 47 2 11 4 20 5 20 2
0 5 14 13 55 3 14 12 60 21 104 19 92 24 117 41 241 24 169 24 332 0 460 -22
118 -86 265 -150 343 -90 111 -230 196 -355 218 -14 3 -32 7 -40 10 -58 21
-393 21 -428 0 -4 -2 -23 -7 -42 -10 -72 -11 -312 -103 -330 -127 -3 -3 -26
-19 -51 -35 -67 -42 -112 -80 -198 -164 -141 -140 -237 -270 -361 -490 -32
-57 -108 -218 -126 -265 -10 -27 -23 -53 -28 -57 -6 -4 -8 -8 -3 -8 4 0 1 -14
-8 -30 -9 -17 -13 -30 -9 -30 4 0 2 -6 -3 -12 -6 -7 -20 -43 -32 -80 -25 -76
-34 -87 -25 -30 4 20 8 53 9 72 2 19 4 35 5 35 2 0 4 14 5 30 1 17 6 53 10 80
7 50 9 68 20 200 16 186 20 386 11 445 -3 19 -8 51 -11 70 -8 57 -11 69 -18
76 -4 4 -7 13 -7 20 0 8 -13 43 -30 79 -52 113 -162 202 -290 235 -39 10 -205
21 -212 15z"/>
</g>
</svg>
